<!DOCTYPE svg PUBLIC "-//W3C//DTD SVG 1.1//EN" "http://www.w3.org/Graphics/SVG/1.1/DTD/svg11.dtd">

<!-- Uploaded to: SVG Repo, www.svgrepo.com, Transformed by: SVG Repo Mixer Tools -->
<svg height="800px" width="800px" version="1.1" id="Layer_1" xmlns="http://www.w3.org/2000/svg" viewBox="0 0 512 512" xml:space="preserve" fill="#000000">

<g id="SVGRepo_bgCarrier" stroke-width="0"/>

<g id="SVGRepo_tracerCarrier" stroke-linecap="round" stroke-linejoin="round"/>

<g id="SVGRepo_iconCarrier"> <circle style="fill:#B5DDF8;" cx="256.001" cy="221.107" r="206.628"/> <g> <path style="fill:#509ED9;" d="M298.477,119.926c32.577-32.577,43.77-17.485,59.982-1.273s31.305,27.403-1.273,59.982 c-36.277,36.277-99.649,40.94-99.649,40.94S262.105,156.298,298.477,119.926z"/> <path style="fill:#509ED9;" d="M213.523,322.297c-32.577,32.577-43.77,17.485-59.982,1.273 c-16.212-16.212-31.305-27.403,1.273-59.982c36.278-36.277,99.649-40.94,99.649-40.94S249.895,285.926,213.523,322.297z"/> </g> <g> <path style="fill:#074761;" d="M357.186,263.589c32.577,32.577,17.485,43.77,1.273,59.982 c-16.212,16.212-27.403,31.305-59.982-1.273c-36.277-36.277-40.94-99.649-40.94-99.649S320.814,227.217,357.186,263.589z"/> <path style="fill:#074761;" d="M154.814,178.634c-32.577-32.577-17.485-43.77-1.273-59.982s27.403-31.305,59.982,1.273 c36.277,36.277,40.94,99.649,40.94,99.649S191.186,215.005,154.814,178.634z"/> </g> <path d="M353.009,512c-3.824,0-7.544-1.548-10.251-4.242c-0.666-0.666-1.274-1.404-1.795-2.202c-0.521-0.782-0.97-1.62-1.332-2.503 c-0.362-0.869-0.637-1.781-0.825-2.708c-0.188-0.927-0.288-1.882-0.288-2.823c0-0.94,0.1-1.897,0.288-2.823s0.463-1.839,0.825-2.722 c0.362-0.869,0.811-1.708,1.332-2.49c0.521-0.796,1.129-1.535,1.795-2.201c2.708-2.693,6.427-4.244,10.251-4.244 c3.808,0,7.529,1.549,10.235,4.244c2.693,2.692,4.244,6.427,4.244,10.235c0,0.941-0.101,1.898-0.29,2.823 c-0.188,0.925-0.463,1.84-0.825,2.708c-0.362,0.883-0.811,1.722-1.332,2.503c-0.52,0.798-1.128,1.536-1.795,2.202 c-0.666,0.666-1.404,1.274-2.201,1.795c-0.796,0.52-1.636,0.97-2.505,1.332c-0.869,0.362-1.779,0.636-2.706,0.824 C354.904,511.9,353.949,512,353.009,512z"/> <path d="M477.112,221.112C477.112,99.19,377.923,0,256.001,0S34.888,99.19,34.888,221.112c0,117.056,91.435,213.14,206.634,220.625 v41.305h-82.524c-7.995,0-14.479,6.484-14.479,14.479S151.003,512,158.998,512h150.569c7.995,0,14.479-6.484,14.479-14.479 s-6.484-14.479-14.479-14.479H270.48v-41.305C385.676,434.253,477.112,338.168,477.112,221.112z M63.846,221.112 c0-105.955,86.2-192.155,192.155-192.155s192.155,86.2,192.155,192.155c0,105.953-86.2,192.153-192.155,192.153 S63.846,327.066,63.846,221.112z"/> <path d="M288.239,332.536c16.047,16.047,29.617,23.525,42.694,23.525c0.038,0,0.077,0,0.113,0 c15.73-0.052,26.033-10.494,35.126-19.706c0.83-0.841,1.669-1.693,2.524-2.547c0.854-0.856,1.707-1.695,2.548-2.525 c9.211-9.091,19.652-19.396,19.704-35.126c0.042-13.112-7.433-26.714-23.525-42.807c-15.322-15.322-34.594-25.505-52.654-32.252 c18.075-6.75,37.358-16.929,52.654-32.226c16.092-16.093,23.567-29.696,23.525-42.807c-0.052-15.728-10.493-26.033-19.704-35.126 c-0.841-0.83-1.694-1.669-2.548-2.524c-0.854-0.856-1.694-1.707-2.524-2.548c-9.091-9.211-19.396-19.654-35.126-19.706 c-0.038,0-0.075,0-0.113,0c-13.076,0-26.647,7.48-42.694,23.525c-15.322,15.32-25.506,34.593-32.253,52.655 c-6.75-18.075-16.929-37.36-32.226-52.657c-16.047-16.047-29.617-23.525-42.694-23.525c-0.038,0-0.077,0-0.113,0 c-15.73,0.052-26.033,10.494-35.126,19.706c-0.83,0.841-1.669,1.693-2.524,2.547c-0.854,0.856-1.707,1.695-2.548,2.525 c-9.211,9.091-19.652,19.396-19.704,35.126c-0.042,13.112,7.433,26.714,23.525,42.807c15.322,15.322,34.594,25.505,52.654,32.252 c-18.075,6.75-37.358,16.929-52.654,32.226c-16.092,16.093-23.567,29.696-23.525,42.807c0.052,15.728,10.493,26.033,19.704,35.126 c0.841,0.83,1.694,1.669,2.548,2.524c0.854,0.856,1.694,1.707,2.524,2.548c9.091,9.211,19.396,19.654,35.126,19.706 c0.038,0,0.075,0,0.113,0c13.076,0,26.647-7.48,42.694-23.525c15.322-15.322,25.506-34.596,32.253-52.657 C262.762,297.955,272.942,317.239,288.239,332.536z M361.992,296.062c-0.013,3.678-5.393,8.987-11.088,14.609 c-0.886,0.875-1.782,1.761-2.684,2.661c-0.901,0.899-1.784,1.795-2.658,2.682c-5.622,5.697-10.932,11.076-14.609,11.089 c-0.006,0-0.012,0-0.016,0c-2.172,0-8.655-1.478-22.221-15.045c-20.718-20.716-29.999-52.398-33.975-72.25 c19.797,3.931,51.354,13.167,72.205,34.018C360.547,287.427,361.999,293.906,361.992,296.062z M308.717,130.164 c13.567-13.567,20.049-15.045,22.221-15.045c0.004,0,0.01,0,0.016,0c3.678,0.013,8.987,5.393,14.609,11.089 c0.875,0.885,1.758,1.781,2.658,2.683c0.901,0.899,1.797,1.784,2.684,2.66c5.696,5.622,11.075,10.932,11.088,14.609 c0.007,2.156-1.445,8.637-15.045,22.235c-20.703,20.703-52.358,29.987-72.212,33.967 C278.699,182.525,287.967,150.913,308.717,130.164z M150.008,146.16c0.013-3.678,5.393-8.987,11.088-14.609 c0.886-0.875,1.782-1.761,2.684-2.661c0.901-0.899,1.784-1.795,2.658-2.681c5.622-5.697,10.932-11.076,14.609-11.089 c0.006,0,0.012,0,0.016,0c2.172,0,8.655,1.478,22.221,15.045c20.718,20.716,29.999,52.398,33.975,72.25 c-19.797-3.931-51.354-13.167-72.205-34.018C151.455,154.796,150.002,148.317,150.008,146.16z M203.283,312.059 c-13.567,13.567-20.049,15.045-22.221,15.045c-0.004,0-0.01,0-0.016,0c-3.678-0.013-8.987-5.393-14.609-11.089 c-0.875-0.885-1.758-1.781-2.658-2.683c-0.901-0.899-1.797-1.784-2.684-2.66c-5.696-5.622-11.075-10.932-11.088-14.609 c-0.007-2.156,1.445-8.637,15.045-22.235c20.703-20.703,52.358-29.987,72.212-33.967 C233.301,259.697,224.033,291.309,203.283,312.059z"/> </g>

</svg>